<?xml version="1.0" encoding="UTF-8"?>
<svg id="b" data-name="Ebene 2" xmlns="http://www.w3.org/2000/svg" viewBox="0 0 214.32 214.32">
  <defs>
    <style>
      .d {
        stroke: #000;
        stroke-miterlimit: 10;
        stroke-width: 8px;
      }

      .d, .e {
        fill: none;
      }

      .e {
        stroke: #1d1d1b;
        stroke-linecap: round;
        stroke-linejoin: round;
        stroke-width: 5px;
      }
    </style>
  </defs>
  <g id="c" data-name="Ebene 2">
    <path class="e" d="M65.03,36.99v44.57s2.97,12.1,14.43,16.98c0,0-2.55,33.96-2.55,45.21s-.21,35.45,8.91,35.45,12.74-12.95,11.46-35.87-3.4-43.51-1.06-45.42,13.8-6.37,13.8-22.07v-38.84h-9.55v29.29s-.42,6.79-4.03,6.79-4.46-5.09-4.46-8.49v-26.53h-8.49v28.65s-.85,5.73-3.82,5.73-5.31-1.91-5.31-6.16v-28.87l-9.34-.42Z"/>
    <path class="e" d="M120.86,37.62s1.7,63.04-.21,74.29-2.97,22.71-2.33,38.21,2.76,28.02,9.76,28.02,10.83-7,11.25-28.44c.28-14.23-8.28-26.96-8.07-32.69.21-5.73,1.06-6.79,9.76-15.92,8.1-8.5,8.7-16.77,6.16-28.44-2.1-9.61-5.94-34.39-26.32-35.02Z"/>
    <rect class="d" x="4" y="4" width="206.32" height="206.32" rx="53.27" ry="53.27"/>
  </g>
</svg>