<?xml version="1.0" encoding="UTF-8"?>
<svg id="b" data-name="Ebene 2" xmlns="http://www.w3.org/2000/svg" viewBox="0 0 214.32 214.32">
  <defs>
    <style>
      .d {
        fill: #1d1d1b;
      }

      .e {
        stroke: #1d1d1b;
        stroke-width: 6px;
      }

      .e, .f {
        fill: none;
        stroke-miterlimit: 10;
      }

      .f {
        stroke: #000;
        stroke-width: 8px;
      }
    </style>
  </defs>
  <g id="c" data-name="Ebene 2">
    <path class="e" d="M91.38,109.51s-30.11-7.83-30.11-15.88v-48.51s1.19-9.35,13.04-5.22,82.27,33.94,82.27,33.94c0,0,7.35,5.66-1.9,10.66-10.23,5.54-86.3,33.28-86.3,33.28,0,0-6.88,2.61-7.11,12.18-.24,9.57,0,36.98,0,36.98,0,0-.47,13.71,10.91,9.14,11.38-4.57,79.89-30.02,79.89-30.02,0,0,7.35-3.05,7.59-15.88.24-12.84-.47-48.95-.47-48.95"/>
    <polyline class="e" points="100.15 115.39 111.06 132.14 111.17 131.91 121.02 111.69"/>
    <line class="e" x1="112.48" y1="149.11" x2="111.06" y2="132.14"/>
    <line class="e" x1="102.29" y1="141.93" x2="121.96" y2="137.36"/>
    <line class="e" x1="100.87" y1="133.66" x2="122.68" y2="128.66"/>
    <polygon class="d" points="61.51 49.91 62.7 65.13 131.92 93.63 149.7 85.8 61.51 49.91"/>
    <rect class="f" x="4" y="4" width="206.32" height="206.32" rx="53.27" ry="53.27"/>
  </g>
</svg>