<?xml version="1.0" encoding="UTF-8"?>
<svg id="b" data-name="Ebene 2" xmlns="http://www.w3.org/2000/svg" viewBox="0 0 214.32 214.32">
  <defs>
    <style>
      .d {
        stroke-width: 8px;
      }

      .d, .e {
        fill: none;
        stroke: #fff;
        stroke-miterlimit: 10;
      }

      .e {
        stroke-width: 6px;
      }

      .f {
        fill: #fff;
      }
    </style>
  </defs>
  <g id="c" data-name="Ebene 2">
    <path class="e" d="M95.7,110.88s-30.11-7.83-30.11-15.88v-48.51s1.19-9.35,13.04-5.22c11.85,4.13,82.27,33.94,82.27,33.94,0,0,7.35,5.66-1.9,10.66-10.23,5.54-86.3,33.28-86.3,33.28,0,0-6.88,2.61-7.11,12.18-.24,9.57,0,36.98,0,36.98,0,0-.47,13.71,10.91,9.14s79.89-30.02,79.89-30.02c0,0,7.35-3.05,7.59-15.88.24-12.84-.47-48.95-.47-48.95"/>
    <polyline class="e" points="104.47 116.75 115.37 133.5 115.48 133.28 125.33 113.05"/>
    <line class="e" x1="116.8" y1="150.47" x2="115.37" y2="133.5"/>
    <line class="e" x1="106.6" y1="143.29" x2="126.28" y2="138.72"/>
    <line class="e" x1="105.18" y1="135.02" x2="126.99" y2="130.02"/>
    <polygon class="f" points="65.83 51.27 67.01 66.5 136.24 94.99 154.02 87.16 65.83 51.27"/>
    <rect class="d" x="4" y="4" width="206.32" height="206.32" rx="53.27" ry="53.27"/>
  </g>
</svg>