<?xml version="1.0" encoding="UTF-8"?>
<svg id="b" data-name="Ebene 2" xmlns="http://www.w3.org/2000/svg" viewBox="0 0 214.32 214.32">
  <defs>
    <style>
      .d {
        stroke-miterlimit: 10;
        stroke-width: 8px;
      }

      .d, .e, .f {
        fill: none;
        stroke: #fff;
      }

      .g {
        fill: #fff;
      }

      .e {
        stroke-width: 6px;
      }

      .e, .f {
        stroke-linecap: round;
        stroke-linejoin: round;
      }

      .f {
        stroke-width: 5px;
      }
    </style>
  </defs>
  <g id="c" data-name="Ebene 2">
    <path class="f" d="M69.14,159.14l-21.3-28.86c-3.4-4.95-4.92-10.97-4.19-16.94,1.24-10.1,7.29-23.47,24.22-23.47,26.77,0,27.4,20.64,27.03,29.78-.4,9.63-25.77,39.48-25.77,39.48Z"/>
    <path class="f" d="M139.73,81.01l-12.19-16.52c-1.95-2.83-2.82-6.28-2.4-9.69.71-5.78,4.17-13.44,13.87-13.44,15.32,0,15.69,11.81,15.47,17.05-.23,5.51-14.75,22.6-14.75,22.6Z"/>
    <line class="e" x1="134.04" y1="89.65" x2="131.13" y2="93.6"/>
    <line class="e" x1="123.46" y1="104.02" x2="120.55" y2="107.97"/>
    <line class="e" x1="122.3" y1="121.43" x2="118.82" y2="117.96"/>
    <line class="e" x1="133.76" y1="134.59" x2="130.28" y2="131.13"/>
    <line class="e" x1="146.46" y1="147.6" x2="142.97" y2="144.13"/>
    <line class="e" x1="88.79" y1="159.48" x2="83.88" y2="159.5"/>
    <line class="e" x1="106.6" y1="159.48" x2="101.69" y2="159.5"/>
    <line class="e" x1="124.25" y1="159.48" x2="119.34" y2="159.5"/>
    <line class="e" x1="142.06" y1="159.48" x2="137.15" y2="159.5"/>
    <line class="e" x1="157.37" y1="159.61" x2="152.45" y2="159.62"/>
    <line class="e" x1="157.35" y1="159.61" x2="154.07" y2="155.96"/>
    <circle class="g" cx="69.32" cy="115.05" r="11.16"/>
    <rect class="d" x="4" y="4" width="206.32" height="206.32" rx="53.27" ry="53.27"/>
  </g>
</svg>