<?xml version="1.0" encoding="UTF-8"?>
<svg id="b" data-name="Ebene 2" xmlns="http://www.w3.org/2000/svg" viewBox="0 0 214.32 214.32">
  <defs>
    <style>
      .d {
        fill: #1d1d1b;
      }

      .e {
        stroke: #000;
        stroke-miterlimit: 10;
        stroke-width: 8px;
      }

      .e, .f, .g {
        fill: none;
      }

      .f {
        stroke-width: 5px;
      }

      .f, .g {
        stroke: #1d1d1b;
        stroke-linecap: round;
        stroke-linejoin: round;
      }

      .g {
        stroke-width: 6px;
      }
    </style>
  </defs>
  <g id="c" data-name="Ebene 2">
    <path class="f" d="M67.34,158.81l-21.3-28.86c-3.4-4.95-4.92-10.97-4.19-16.94,1.24-10.1,7.29-23.47,24.22-23.47,26.77,0,27.4,20.64,27.03,29.78-.4,9.63-25.77,39.48-25.77,39.48Z"/>
    <path class="f" d="M137.93,80.67l-12.19-16.52c-1.95-2.83-2.82-6.28-2.4-9.69.71-5.78,4.17-13.44,13.87-13.44,15.32,0,15.69,11.81,15.47,17.05-.23,5.51-14.75,22.6-14.75,22.6Z"/>
    <line class="g" x1="132.24" y1="89.31" x2="129.33" y2="93.27"/>
    <line class="g" x1="121.66" y1="103.68" x2="118.75" y2="107.63"/>
    <line class="g" x1="120.5" y1="121.09" x2="117.01" y2="117.63"/>
    <line class="g" x1="131.96" y1="134.25" x2="128.47" y2="130.79"/>
    <line class="g" x1="144.65" y1="147.26" x2="141.17" y2="143.8"/>
    <line class="g" x1="86.99" y1="159.15" x2="82.08" y2="159.16"/>
    <line class="g" x1="104.8" y1="159.15" x2="99.88" y2="159.16"/>
    <line class="g" x1="122.45" y1="159.15" x2="117.54" y2="159.16"/>
    <line class="g" x1="140.26" y1="159.15" x2="135.35" y2="159.16"/>
    <line class="g" x1="155.56" y1="159.27" x2="150.65" y2="159.28"/>
    <line class="g" x1="155.55" y1="159.28" x2="152.26" y2="155.62"/>
    <circle class="d" cx="67.51" cy="114.71" r="11.16"/>
    <rect class="e" x="4" y="4" width="206.32" height="206.32" rx="53.27" ry="53.27"/>
  </g>
</svg>