<?xml version="1.0" encoding="UTF-8"?>
<svg id="b" data-name="Ebene 2" xmlns="http://www.w3.org/2000/svg" viewBox="0 0 214.32 214.32">
  <defs>
    <style>
      .d {
        fill: #1d1d1b;
      }

      .e {
        stroke-width: 6px;
      }

      .e, .f, .g, .h {
        fill: none;
        stroke-miterlimit: 10;
      }

      .e, .f, .h {
        stroke: #1d1d1b;
      }

      .f {
        stroke-width: 4px;
      }

      .g {
        stroke: #000;
        stroke-width: 8px;
      }

      .h {
        stroke-linecap: round;
        stroke-width: 5px;
      }
    </style>
  </defs>
  <g id="c" data-name="Ebene 2">
    <rect class="f" x="53.36" y="125.33" width="15.65" height="29.08"/>
    <rect class="f" x="78.9" y="114.73" width="15.65" height="39.68"/>
    <rect class="f" x="104.44" y="107.62" width="15.65" height="46.78"/>
    <rect class="f" x="129.98" y="94.57" width="15.65" height="59.83"/>
    <rect class="f" x="155.34" y="72.52" width="15.65" height="81.89"/>
    <path class="f" d="M61.71,46.35h19.74v28.91s6.15,5.11,5.18,14.15c-1.1,10.37-11.02,13.51-15,13.6-5.14.11-14.64-4.76-14.98-13.12s2.68-11.04,4.67-13.63l.4-29.9Z"/>
    <line class="h" x1="81.95" y1="52" x2="89.3" y2="52"/>
    <line class="h" x1="81.95" y1="61.95" x2="89.3" y2="61.95"/>
    <circle class="d" cx="71.65" cy="87.29" r="7.17"/>
    <line class="e" x1="71.6" y1="57.11" x2="71.6" y2="81.19"/>
    <rect class="g" x="4" y="4" width="206.32" height="206.32" rx="53.27" ry="53.27"/>
  </g>
</svg>