<?xml version="1.0" encoding="UTF-8"?>
<svg id="b" data-name="Ebene 2" xmlns="http://www.w3.org/2000/svg" viewBox="0 0 214.32 214.32">
  <defs>
    <style>
      .d, .e {
        stroke-miterlimit: 10;
      }

      .d, .e, .f, .g {
        fill: none;
      }

      .d, .f, .g {
        stroke: #1d1d1b;
      }

      .d, .g {
        stroke-width: 6px;
      }

      .e {
        stroke: #000;
        stroke-width: 8px;
      }

      .f {
        stroke-width: 5px;
      }

      .f, .g {
        stroke-linecap: round;
        stroke-linejoin: round;
      }
    </style>
  </defs>
  <g id="c" data-name="Ebene 2">
    <path class="d" d="M43.12,58.68s51.23-3.5,106.71,33.74c0,0,31.99,18.49,32.24,30.49.25,12-8.5,13-14.99,13.25s-38.24.25-38.24.25"/>
    <path class="g" d="M44.12,136.9s57.48-1.75,64.48.75,13.99,12.5,19.49,12.75,35.99,0,35.99,0l-9.75-13"/>
    <path class="g" d="M51.87,138.15s3,11.25,12.25,11.25,12-11,12-11"/>
    <path class="g" d="M86.6,138.15s3,11.25,12.25,11.25,12-11,12-11"/>
    <path class="g" d="M77.61,63.18s9.75,21.49,36.74,25.49c26.99,4,36.99,5.75,36.99,5.75"/>
    <path class="f" d="M44.91,93.13s55.2,3.25,81.39,15.24c0,0,2.12,10.75-3.77,9.75-5.9-1-76.2-6.25-77.61-6"/>
    <line class="f" x1="59.48" y1="94.38" x2="59.48" y2="112.37"/>
    <line class="f" x1="83.66" y1="98.13" x2="83.66" y2="112.37"/>
    <line class="f" x1="105.22" y1="103.63" x2="105.22" y2="114.68"/>
    <rect class="e" x="4" y="4" width="206.32" height="206.32" rx="53.27" ry="53.27"/>
  </g>
</svg>