<?xml version="1.0" encoding="UTF-8"?>
<svg id="b" data-name="Ebene 2" xmlns="http://www.w3.org/2000/svg" viewBox="0 0 610.71 520.39">
  <g id="c" data-name="Ebene 2">
    <path d="M497.4,42.48s8.12-15.59,3.25-25c-3.68-7.12,6.82-22.4,13.64-15.91s18.83,36.37,28.57,44.48,14.61,16.56,22.08,18.83,13.31,8.44,16.88,11.04,14.29-3.25,17.21-5.52,8.12-5.2,9.42-.97-5.84,9.42-6.49,15.59-1.62,18.83,1.95,19.48,10.07,4.55,4.87,9.09-14.29,11.69-21.76,10.72-25.33-6.17-33.12,2.6-12.75,33.41-26.3,34.74c-6.17.61-12.66-9.09-16.56-14.61s-22.08-22.73-32.15-14.29-15.59,13.64-14.94,18.83-3.25,7.14-7.47,4.22-9.74-1.95-14.61,1.3-19.16,8.44-18.83,2.27,7.79-11.36,4.55-21.43-5.52-24.35-1.3-27.92,21.11-11.36,20.78-16.88,4.22-9.74,8.44-7.79,16.88,10.07,22.73,8.12-7.47-8.77,5.2-21.43c8.6-8.6.32-11.36,13.96-29.55Z"/>
    <path d="M425.98,186.3c6.07-8.24,2.17-14.74,15.17-15.17,13.01-.43,12.14-9.97,16.91-6.5,4.77,3.47,15.17,3.03,14.74,6.5-.43,3.47-9.1,31.65-5.2,35.98,3.9,4.34,13.87,42.49,5.64,57.66-8.24,15.17-21.24,16.47-20.81,22.11.43,5.64.87,12.57-6.07,12.57s-15.17,1.73-15.17,8.24,1.73,23.84-.87,27.75c-2.6,3.9-.43,15.61-6.5,19.51-6.07,3.9-8.67,4.34-10.84,10.84-2.17,6.5-6.94,13.01-5.64,18.64,1.3,5.64,6.94,20.38,2.6,23.41s-11.71,1.73-14.31,7.8-6.94,11.71-12.14,12.14c-5.2.43-7.8,7.37-11.27,6.5-3.47-.87-9.54-8.24-9.1-12.57.43-4.34-6.5-6.94-10.84-3.47-4.34,3.47-11.71,20.38-16.04,19.94-4.34-.43-6.07-2.17-4.34-14.74,1.73-12.57-17.77,11.27-22.11,11.71-4.34.43-16.04-9.54-19.51-8.24-3.47,1.3-18.21-2.6-20.81.87-2.6,3.47-3.03,11.27-7.8,12.14s-12.24-1.75-14.74,1.73c-6.84,9.55-9.97,4.34-13.01,9.1s-9.97,18.96-14.88,9.76-12.63-10.32-18.09-10.2c-4.11.09-.05-15.32,2.55-19.66,2.6-4.34-4.87-6.05-10.02-1.7-6.41,5.41-2.1,9.32-4.65,13.13-4.11,6.14-17.34,6.07-18.64,9.97s-3.73,7.73-7.37,8.24c-.97.14-2.08-.27-4.14-1.81,0,0-2.9-4.44-5.72-5.65-4.49-1.93-11.99-3-17.72-.86-12.5,4.68-10.68,21.73-19.24,21.33-6.91-.32-16.91-12.14-18.64-17.77-1.73-5.64-14.48,8.32-19.94,11.27-21.56,11.66-18.52,40.78-26.88,42.92-5.18,1.32-10.32-2.18-10.89.3-1.21,5.35-2.77,8.1-14.62,9.99s-8.53-2.68-8.41-9.75c.08-4.59-10.57,3.11-12.3-4.26-1.73-7.37,1.56-32.26,8.5-35.73,6.94-3.47,7.54-12.16,2.6-8.24-9.03,7.17-6.94-5.64-2.6-11.71,4.34-6.07-4.81-.23-5.24-4.56-.43-4.34-10.32-24.13-6.85-30.63,3.47-6.5,17.95-2.97,21.42-5.14s11.92-6.05,15.39-5.62c3.47.43,19.51,0,21.24-4.77,1.73-4.77,2.6-16.04,12.57-14.31,9.97,1.73,13.44-8.24,21.68-6.5,8.24,1.73,47.73-32.71,64.16-22.54,11.04,6.83,30.78,8.24,42.05,6.5,11.27-1.73,25.54-.79,25.54,3.11s7.84,15.1,16.08,10.76c8.24-4.34,4-8.98,8.13-18.04,2.65-5.82,30.42-18.58,30.42-23.35s-.43-20.13,6-23.56c8.83-4.71,21.97-7.15,19.62,1.66-1.84,6.91-11.77,20.38-5.7,22.54,6.07,2.17,29.98-12.57,35.18-11.71,5.2.87,20.38-19.94,25.14-19.94s20.81-10.84,21.68-14.74c.87-3.9,10.84-22.54,14.74-22.98,3.9-.43,16.47-31.21,11.71-36.85-4.77-5.64-3.03-11.71,1.73-13.01s1.3-21.68,7.8-23.84c6.5-2.17,8.67-6.5,8.67-6.5Z"/>
  </g>
</svg>